<?xml version="1.0" encoding="UTF-8" standalone="no"?>
<!-- Created with Inkscape (http://www.inkscape.org/) -->

<svg
   xmlns:osb="http://www.openswatchbook.org/uri/2009/osb"
   xmlns:dc="http://purl.org/dc/elements/1.1/"
   xmlns:cc="http://creativecommons.org/ns#"
   xmlns:rdf="http://www.w3.org/1999/02/22-rdf-syntax-ns#"
   xmlns:svg="http://www.w3.org/2000/svg"
   xmlns="http://www.w3.org/2000/svg"
   xmlns:sodipodi="http://sodipodi.sourceforge.net/DTD/sodipodi-0.dtd"
   xmlns:inkscape="http://www.inkscape.org/namespaces/inkscape"
   width="600"
   height="600"
   id="svg2"
   version="1.1"
   inkscape:version="0.48.5 r10040"
   inkscape:export-filename="C:\Users\Home\Desktop\bitmap.png"
   inkscape:export-xdpi="90"
   inkscape:export-ydpi="90"
   sodipodi:docname="logo.svg">
  <defs
     id="defs4">
    <inkscape:path-effect
       effect="bend_path"
       id="path-effect7023"
       is_visible="true"
       bendpath="m 112.80524,139.19247 45.52439,0"
       prop_scale="1"
       scale_y_rel="false"
       vertical="false" />
    <inkscape:path-effect
       effect="envelope"
       id="path-effect7021"
       is_visible="true"
       yy="true"
       xx="true"
       bendpath1="m 112.80524,115.91715 45.52439,0"
       bendpath2="m 158.32963,115.91715 0,46.55064"
       bendpath3="m 112.80524,162.46779 45.52439,0"
       bendpath4="m 112.80524,115.91715 0,46.55064" />
    <inkscape:path-effect
       effect="gears"
       id="path-effect7019"
       is_visible="true"
       teeth="10"
       phi="5" />
    <inkscape:path-effect
       effect="ruler"
       id="path-effect7017"
       is_visible="true"
       unit="px"
       mark_distance="64.7"
       mark_length="30"
       minor_mark_length="20"
       major_mark_steps="1"
       shift="0"
       offset="0"
       mark_dir="right"
       border_marks="none" />
    <inkscape:path-effect
       effect="skeletal"
       id="path-effect6150"
       is_visible="true"
       pattern="M 0,5 C 0,2.24 2.24,0 5,0 7.76,0 10,2.24 10,5 10,7.76 7.76,10 5,10 2.24,10 0,7.76 0,5 z"
       copytype="single_stretched"
       prop_scale="1"
       scale_y_rel="false"
       spacing="0"
       normal_offset="0"
       tang_offset="0"
       prop_units="false"
       vertical_pattern="false"
       fuse_tolerance="0" />
    <linearGradient
       id="linearGradient6072">
      <stop
         style="stop-color:#006900;stop-opacity:1;"
         offset="0"
         id="stop6090" />
      <stop
         style="stop-color:#000000;stop-opacity:0;"
         offset="1"
         id="stop6076" />
    </linearGradient>
    <marker
       inkscape:stockid="Tail"
       orient="auto"
       refY="0"
       refX="0"
       id="Tail"
       style="overflow:visible">
      <g
         id="g5268"
         transform="scale(-1.2,-1.2)">
        <path
           id="path5270"
           d="M -3.8048674,-3.9585227 0.54352094,0"
           style="fill:none;stroke:#000000;stroke-width:0.80000001;stroke-linecap:round"
           inkscape:connector-curvature="0" />
        <path
           id="path5272"
           d="M -1.2866832,-3.9585227 3.0617053,0"
           style="fill:none;stroke:#000000;stroke-width:0.80000001;stroke-linecap:round"
           inkscape:connector-curvature="0" />
        <path
           id="path5274"
           d="M 1.3053582,-3.9585227 5.6537466,0"
           style="fill:none;stroke:#000000;stroke-width:0.80000001;stroke-linecap:round"
           inkscape:connector-curvature="0" />
        <path
           id="path5276"
           d="M -3.8048674,4.1775838 0.54352094,0.21974226"
           style="fill:none;stroke:#000000;stroke-width:0.80000001;stroke-linecap:round"
           inkscape:connector-curvature="0" />
        <path
           id="path5278"
           d="M -1.2866832,4.1775838 3.0617053,0.21974226"
           style="fill:none;stroke:#000000;stroke-width:0.80000001;stroke-linecap:round"
           inkscape:connector-curvature="0" />
        <path
           id="path5280"
           d="M 1.3053582,4.1775838 5.6537466,0.21974226"
           style="fill:none;stroke:#000000;stroke-width:0.80000001;stroke-linecap:round"
           inkscape:connector-curvature="0" />
      </g>
    </marker>
    <linearGradient
       id="linearGradient5222"
       osb:paint="solid">
      <stop
         style="stop-color:#000000;stop-opacity:1;"
         offset="0"
         id="stop5224" />
    </linearGradient>
    <linearGradient
       id="linearGradient5216"
       osb:paint="solid">
      <stop
         style="stop-color:#000000;stop-opacity:1;"
         offset="0"
         id="stop5218" />
    </linearGradient>
    <clipPath
       clipPathUnits="userSpaceOnUse"
       id="clipPath6396">
      <path
         transform="translate(0,452.36217)"
         sodipodi:type="arc"
         style="fill:none;stroke:#000000;stroke-opacity:1"
         id="path6398"
         sodipodi:cx="300"
         sodipodi:cy="300"
         sodipodi:rx="260"
         sodipodi:ry="260"
         d="m 560,300 a 260,260 0 1 1 -520,0 260,260 0 1 1 520,0 z" />
    </clipPath>
    <clipPath
       clipPathUnits="userSpaceOnUse"
       id="clipPath6400">
      <path
         sodipodi:type="arc"
         style="fill:none;stroke:#000000;stroke-opacity:1"
         id="path6402"
         sodipodi:cx="300"
         sodipodi:cy="300"
         sodipodi:rx="260"
         sodipodi:ry="260"
         d="m 560,300 a 260,260 0 1 1 -520,0 260,260 0 1 1 520,0 z"
         transform="translate(0,452.36217)" />
    </clipPath>
  </defs>
  <sodipodi:namedview
     id="base"
     pagecolor="#cbcbcb"
     bordercolor="#666666"
     borderopacity="1.0"
     inkscape:pageopacity="0"
     inkscape:pageshadow="2"
     inkscape:zoom="0.49497475"
     inkscape:cx="654.94764"
     inkscape:cy="411.02105"
     inkscape:document-units="px"
     inkscape:current-layer="layer1"
     showgrid="true"
     inkscape:snap-bbox="true"
     inkscape:snap-global="true"
     inkscape:window-width="1920"
     inkscape:window-height="1018"
     inkscape:window-x="-8"
     inkscape:window-y="-8"
     inkscape:window-maximized="1"
     inkscape:snap-grids="false"
     inkscape:showpageshadow="false"
     inkscape:snap-bbox-midpoints="true"
     inkscape:snap-midpoints="true"
     inkscape:snap-object-midpoints="true"
     showguides="true">
    <inkscape:grid
       type="xygrid"
       id="grid6060"
       empspacing="10"
       visible="true"
       enabled="true"
       snapvisiblegridlinesonly="true"
       dotted="true" />
  </sodipodi:namedview>
  <metadata
     id="metadata7">
    <rdf:RDF>
      <cc:Work
         rdf:about="">
        <dc:format>image/svg+xml</dc:format>
        <dc:type
           rdf:resource="http://purl.org/dc/dcmitype/StillImage" />
        <dc:title></dc:title>
      </cc:Work>
    </rdf:RDF>
  </metadata>
  <g
     inkscape:label="Layer 1"
     inkscape:groupmode="layer"
     id="layer1"
     transform="translate(0,-452.36217)">
    <path
       sodipodi:type="arc"
       style="fill:#008000;stroke:#ffffff;stroke-width:40.89543359000000300;stroke-linejoin:bevel;stroke-miterlimit:4;stroke-opacity:1;stroke-dasharray:none;stroke-dashoffset:0;fill-opacity:1"
       id="path6070"
       sodipodi:cx="250"
       sodipodi:cy="262"
       sodipodi:rx="210"
       sodipodi:ry="230"
       d="m 460,262 a 210,230 0 1 1 -420,0 210,230 0 1 1 420,0 z"
       transform="matrix(1.279527,0,0,1.1682638,-19.881742,446.27707)" />
    <rect
       style="fill:none;fill-opacity:1;stroke:none;stroke-width:50;stroke-linejoin:bevel;stroke-miterlimit:4;stroke-opacity:1;stroke-dasharray:none;stroke-dashoffset:0"
       id="rect6106"
       width="600"
       height="600"
       x="0"
       y="0"
       transform="translate(0,452.36217)" />
    <path
       id="path6202-8"
       style="fill:none;stroke:#ffffff;stroke-width:4;stroke-linecap:butt;stroke-linejoin:miter;stroke-opacity:1;stroke-miterlimit:4;stroke-dasharray:none"
       d="m 501,492.36211 0,520.00009 M 400,492.36211 400,1012.3622 M 299,492.36211 299,1012.3622 M 198,492.36211 198,1012.3622 M 97,492.36211 97,1012.3622"
       clip-path="url(#clipPath6400)" />
    <path
       inkscape:connector-curvature="0"
       id="path6202-8-3"
       style="fill:none;stroke:#ffffff;stroke-width:4;stroke-linecap:butt;stroke-linejoin:miter;stroke-opacity:1;stroke-miterlimit:4;stroke-dasharray:none"
       d="m 560.00003,954.36217 -520.000055,0 m 520.000055,-101 -520.000055,0 m 520.000055,-101 -520.000055,0 m 520.000055,-101 -520.000055,0 m 520.000055,-101 -520.000055,0"
       clip-path="url(#clipPath6396)" />
    <path
       sodipodi:type="inkscape:offset"
       inkscape:radius="7.3020582"
       inkscape:original="M 299.65625 527.40625 C 289.27298 529.06719 286.26743 541.36974 282.5625 549.71875 C 265.73983 598.84543 257.5146 650.53055 247.09375 701.40625 C 233.60729 771.12872 222.91571 841.50332 205.71875 910.40625 C 204.10403 916.45642 201.93289 922.40054 199.3125 928.125 C 182.65148 894.74936 175.19232 857.89169 164.96875 822.25 C 152.10443 773.95641 141.62139 724.75226 125.90625 677.5 C 125.09352 673.45631 121.17877 667.6884 116.625 671.15625 C 109.20383 678.10304 108.96087 689.13906 105.25 698.21875 C 99.206372 717.10801 90.645035 735.61869 80.125 752.15625 C 84.428933 749.11987 86.653002 743.54733 89.96875 739.4375 C 102.22153 720.69182 108.69299 699.00056 116.5625 678.25 C 120.01517 674.79982 122.68576 680.39343 122.78125 683.40625 C 139.72769 741.8719 151.26067 801.82871 167.375 860.5625 C 173.81594 884.15641 179.93715 908.10821 191.0625 929.96875 C 193.47262 934.71755 200.57873 939.53063 204.8125 934.09375 C 211.86915 925.72326 213.05207 914.06649 216.375 903.84375 C 233.97303 832.9956 244.89694 760.63451 259.53125 689.09375 C 268.63664 643.10914 277.15468 596.68808 292.1875 552.28125 C 294.17943 546.80121 296.87102 541.65823 300.0625 536.75 C 313.7844 561.89128 317.33094 590.87324 323.71875 618.4375 C 342.73273 712.63562 353.73682 808.30355 373.96875 902.25 C 377.0386 913.66793 378.27925 926.8206 386.71875 935.71875 C 393.56215 938.96831 399.11778 931.26645 401.375 925.75 C 413.95929 901.6216 420.4685 874.9973 428.9375 849.21875 C 446.11718 792.73923 459.51469 734.9708 478.375 679.125 C 479.40655 676.08753 482.33232 673.40859 485.125 676.375 C 492.40594 682.57976 492.17362 693.21746 495.375 701.625 C 500.27292 719.60857 507.13787 738.46382 519.78125 751.96875 C 516.91323 745.76822 512.15166 740.24643 509.78125 733.59375 C 501.84202 716.58224 498.94403 697.75348 493.375 679.96875 C 491.06009 674.35562 484.68053 668.14558 478.3125 670.65625 C 471.99662 676.8471 471.23702 686.47208 467.6875 694.3125 C 443.49057 766.65911 426.83749 841.55427 398.65625 912.5 C 396.33419 917.95778 393.49308 923.12396 390.375 928.21875 C 377.5703 889.93752 373.27213 849.47946 366 809.875 C 352.68653 730.01666 342.3601 649.42841 323.1875 570.75 C 319.31113 556.59358 316.22939 541.06362 306.21875 529.8125 C 304.37624 528.34699 302.07343 527.17534 299.65625 527.40625 z "
       style="fill:#ffffff;fill-opacity:1;fill-rule:evenodd;stroke:#008000;stroke-opacity:1;stroke-width:4;stroke-miterlimit:4;stroke-dasharray:none"
       id="path6171"
       d="M 298.96875,520.125 A 7.3027884,7.3027884 0 0 0 298.5,520.1875 c -7.8598,1.25728 -13.14855,6.9 -16.21875,12.1875 -3.0702,5.2875 -4.79621,10.74679 -6.40625,14.375 a 7.3027884,7.3027884 0 0 0 -0.21875,0.59375 C 258.56138,597.26534 250.31484,649.27424 239.9375,699.9375 a 7.3027884,7.3027884 0 0 0 0,0.0937 c -13.51751,69.88298 -24.20887,140.07072 -41.28125,208.5 -0.008,0.0318 -0.0233,0.0619 -0.0312,0.0937 -11.3151,-27.93433 -17.97687,-58.18947 -26.59375,-88.25 -0.011,-0.0413 -0.0203,-0.0837 -0.0312,-0.125 -12.78581,-48.01589 -23.28259,-97.3336 -39.15625,-145.0625 l -0.0625,0.0312 c -0.78069,-3.25829 -2.18807,-6.34079 -5.1875,-9.09375 -1.63203,-1.49793 -3.91278,-2.9124 -6.875,-3.25 -2.96222,-0.3376 -6.21539,0.70515 -8.53125,2.46875 a 7.3027884,7.3027884 0 0 0 -0.5625,0.46875 c -10.17995,9.52923 -10.15583,22.39135 -13.125,29.65625 A 7.3027884,7.3027884 0 0 0 98.28125,696 c -5.855634,18.30169 -14.153956,36.28071 -24.3125,52.25 a 7.3027884,7.3027884 0 0 0 10.375,9.875 c 6.774419,-4.77928 9.020211,-11.25249 11.3125,-14.09375 a 7.3027884,7.3027884 0 0 0 0.4375,-0.59375 c 10.16198,-15.54693 16.23477,-32.37324 22.15625,-48.78125 15.4365,55.16532 26.73128,111.85037 42.09375,167.84375 6.41983,23.51659 12.60656,47.96411 24.21875,70.78125 2.06524,4.06927 5.21767,7.31209 9.8125,9.28125 2.29741,0.98458 5.10792,1.59232 8.15625,1.03125 2.96503,-0.54574 5.8573,-2.36498 7.84375,-4.8125 l 0.0312,0.0312 c 0.0593,-0.0703 0.0977,-0.14826 0.15625,-0.21875 8.78734,-10.57709 9.79375,-23.40534 12.75,-32.5 a 7.3027884,7.3027884 0 0 0 0.15625,-0.5 C 241.17677,834.3028 252.10395,761.8551 266.6875,690.5625 a 7.3027884,7.3027884 0 0 0 0,-0.0625 c 9.10767,-45.99614 17.57112,-92.02963 32.34375,-135.71875 l 0.0312,0 c 0.17314,-0.47632 0.40836,-0.9342 0.59375,-1.40625 8.11499,20.50154 11.59448,43.5261 16.90625,66.5 0.0145,0.0721 0.0167,0.14664 0.0312,0.21875 18.90565,93.72463 29.93363,189.34895 50.25,283.6875 a 7.3027884,7.3027884 0 0 0 0.0625,0.375 c 2.83286,10.53648 3.83398,25.34808 14.5,36.59375 a 7.3027884,7.3027884 0 0 0 2.1875,1.5625 c 6.13258,2.91203 13.1293,0.57546 16.96875,-2.78125 3.63465,-3.17766 5.77532,-6.98804 7.25,-10.4375 l 0.0312,0.0312 c 0.1061,-0.20342 0.17601,-0.42133 0.28125,-0.625 12.91437,-24.99233 19.46753,-51.78924 27.75,-77 a 7.3027884,7.3027884 0 0 0 0.0625,-0.15625 c 16.71185,-54.94148 29.85447,-110.67887 47.625,-164.40625 0.40643,1.00326 0.83197,1.91382 1.1875,3.1875 1.04321,3.73723 1.806,8.45432 3.59375,13.40625 0.086,0.23815 0.12762,0.44817 0.21875,0.6875 5.001,18.21486 11.9888,37.91756 25.875,52.75 a 7.3027884,7.3027884 0 0 0 11.96875,-8.0625 c -3.46737,-7.49629 -7.98852,-12.80631 -9.75,-17.75 a 7.3027884,7.3027884 0 0 0 -0.25,-0.65625 c -7.35397,-15.75747 -10.27015,-34.22084 -16.0625,-52.71875 A 7.3027884,7.3027884 0 0 0 500.125,677.1875 c -1.69698,-4.1148 -4.45419,-7.93749 -8.46875,-10.84375 C 487.64169,663.43749 481.4942,661.561 475.625,663.875 a 7.3027884,7.3027884 0 0 0 -2.4375,1.5625 c -8.80877,8.63439 -9.37132,19.72346 -12.15625,25.875 A 7.3027884,7.3027884 0 0 0 460.75,692 c -24.24651,72.49485 -40.83535,146.89992 -68.5,216.84375 -8.71863,-32.32778 -12.82875,-66.33184 -19.0625,-100.28125 l -0.0312,0 c -13.27303,-79.63555 -23.58384,-160.36629 -42.875,-239.53125 a 7.3027884,7.3027884 0 0 0 -0.0625,-0.21875 c -3.77746,-13.79521 -6.79721,-30.65567 -18.53125,-43.84375 a 7.3027884,7.3027884 0 0 0 -0.9375,-0.875 c -2.67838,-2.13035 -6.59934,-4.46377 -11.78125,-3.96875 z" />
    <path
       style="font-size:medium;font-style:normal;font-variant:normal;font-weight:normal;font-stretch:normal;text-indent:0;text-align:start;text-decoration:none;line-height:normal;letter-spacing:normal;word-spacing:normal;text-transform:none;direction:ltr;block-progression:tb;writing-mode:lr-tb;text-anchor:start;baseline-shift:baseline;color:#000000;fill:#ffffff;fill-opacity:1;stroke:none;stroke-width:10;marker:none;visibility:visible;display:inline;overflow:visible;enable-background:accumulate;font-family:Sans;-inkscape-font-specification:Sans"
       d="m 169.87262,564.99145 c -1.12121,-0.01 -2.24203,0.37143 -3.125,1.0625 -18.6291,13.96655 -35.08947,30.5803 -48.875,49.34375 -1.55481,2.11073 -1.04878,5.44593 1.06214,7.00048 2.11092,1.55456 5.44606,1.04813 7.00036,-1.06298 18.20458,-15.11558 32.18275,-26.04614 46.8125,-47.28125 1.69985,-1.22028 2.48302,-3.57973 1.85027,-5.57427 -0.63275,-1.99453 -2.63284,-3.47102 -4.72527,-3.48823 z"
       id="path6613"
       inkscape:connector-curvature="0"
       sodipodi:nodetypes="cccsccsc" />
  </g>
</svg>
