<?xml version="1.0" encoding="UTF-8" standalone="no"?>
<!-- Created with Inkscape (http://www.inkscape.org/) -->

<svg
   xmlns:dc="http://purl.org/dc/elements/1.1/"
   xmlns:cc="http://creativecommons.org/ns#"
   xmlns:rdf="http://www.w3.org/1999/02/22-rdf-syntax-ns#"
   xmlns:svg="http://www.w3.org/2000/svg"
   xmlns="http://www.w3.org/2000/svg"
   xmlns:sodipodi="http://sodipodi.sourceforge.net/DTD/sodipodi-0.dtd"
   xmlns:inkscape="http://www.inkscape.org/namespaces/inkscape"
   width="600"
   height="600"
   id="svg6629"
   version="1.1"
   inkscape:version="0.48.5 r10040"
   sodipodi:docname="settings.svg"
   inkscape:export-filename="C:\Qt\projects\fft\source\res\icons\settings_48p.png"
   inkscape:export-xdpi="7.1999998"
   inkscape:export-ydpi="7.1999998">
  <defs
     id="defs6631">
    <inkscape:perspective
       sodipodi:type="inkscape:persp3d"
       inkscape:vp_x="0 : 526.18109 : 1"
       inkscape:vp_y="0 : 1000 : 0"
       inkscape:vp_z="744.09448 : 526.18109 : 1"
       inkscape:persp3d-origin="372.04724 : 350.78739 : 1"
       id="perspective6637" />
    <inkscape:perspective
       id="perspective6615"
       inkscape:persp3d-origin="0.5 : 0.33333333 : 1"
       inkscape:vp_z="1 : 0.5 : 1"
       inkscape:vp_y="0 : 1000 : 0"
       inkscape:vp_x="0 : 0.5 : 1"
       sodipodi:type="inkscape:persp3d" />
  </defs>
  <sodipodi:namedview
     id="base"
     pagecolor="#ffffff"
     bordercolor="#666666"
     borderopacity="1.0"
     inkscape:pageopacity="0.0"
     inkscape:pageshadow="2"
     inkscape:zoom="0.24748737"
     inkscape:cx="1037.2673"
     inkscape:cy="-76.755713"
     inkscape:document-units="px"
     inkscape:current-layer="g6596"
     showgrid="false"
     inkscape:window-width="1920"
     inkscape:window-height="1018"
     inkscape:window-x="-8"
     inkscape:window-y="-8"
     inkscape:window-maximized="1" />
  <metadata
     id="metadata6634">
    <rdf:RDF>
      <cc:Work
         rdf:about="">
        <dc:format>image/svg+xml</dc:format>
        <dc:type
           rdf:resource="http://purl.org/dc/dcmitype/StillImage" />
        <dc:title></dc:title>
      </cc:Work>
    </rdf:RDF>
  </metadata>
  <g
     inkscape:label="Layer 1"
     inkscape:groupmode="layer"
     id="layer1"
     transform="translate(0,-452.36218)">
    <g
       transform="matrix(9.8137136,0,0,9.8137136,-2250.1262,598.08659)"
       id="g6596">
      <g
         id="g7197"
         transform="matrix(1.4568104,0,0,1.439245,-104.78909,-21.696821)">
        <path
           style="font-size:medium;font-style:normal;font-variant:normal;font-weight:normal;font-stretch:normal;text-indent:0;text-align:start;text-decoration:none;line-height:normal;letter-spacing:normal;word-spacing:normal;text-transform:none;direction:ltr;block-progression:tb;writing-mode:lr-tb;text-anchor:start;baseline-shift:baseline;color:#000000;fill:none;stroke:#c8c8c8;stroke-width:26.37176345;stroke-miterlimit:4;stroke-opacity:1;stroke-dasharray:none;marker:none;visibility:visible;display:inline;overflow:visible;enable-background:accumulate;font-family:Sans;-inkscape-font-specification:Sans"
           d="m 252,21.1875 c -6.93463,0 -12.53125,5.523982 -12.53125,12.375 l 0,61.375 c -16.47434,5.049154 -32.10269,12.06001 -46.625,20.8125 L 149.6875,73.09375 c -4.90353,-4.844401 -12.81522,-4.844401 -17.71875,0 l -66.65625,65.875 c -4.903525,4.8444 -4.903525,12.6556 0,17.5 l 46.9375,46.375 c -6.51687,12.97708 -11.73562,26.69302 -15.5,41 l -65.8125,0 c -6.934632,0 -12.5,5.52398 -12.5,12.375 l 0,93.125 c 0,6.85102 5.565368,12.375 12.5,12.375 l 68.84375,0 c 4.39897,13.77404 10.17174,26.94344 17.15625,39.34375 l -50,49.375 c -4.903525,4.8444 -4.903525,12.6556 0,17.5 l 66.6875,65.84375 c 4.90353,4.8444 12.78397,4.8444 17.6875,0 l 50.25,-49.65625 c 12.50582,6.72783 25.73634,12.21481 39.5625,16.3125 l 0,68.65625 c 0,6.85102 5.56537,12.375 12.5,12.375 l 94.28125,0 c 6.93463,0 12.53125,-5.52398 12.53125,-12.375 l 0,-68.96875 c 14.09035,-4.25994 27.58093,-9.97777 40.28125,-16.96875 l 49.5,48.90625 c 4.90353,4.8444 12.81522,4.8444 17.71875,0 l 66.65625,-65.84375 c 4.90353,-4.8444 4.90353,-12.6556 0,-17.5 L 484.5625,399.28125 C 491.3864,386.887 496.99336,373.73592 501.25,360 l 69.09375,0 c 6.93463,0 12.53125,-5.52398 12.53125,-12.375 l 0,-93.125 c 0,-6.85102 -5.59662,-12.375 -12.53125,-12.375 l -67.09375,0 c -4.07351,-14.96353 -9.73305,-29.27575 -16.8125,-42.75 l 46.53125,-45.96875 c 4.90353,-4.8444 4.90353,-12.6556 0,-17.5 L 466.3125,70.0625 c -4.90353,-4.844401 -12.81522,-4.844401 -17.71875,0 l -44.25,43.71875 C 390.1132,105.5536 374.84347,98.970145 358.8125,94.25 l 0,-60.6875 c 0,-6.851018 -5.59662,-12.375 -12.53125,-12.375 l -94.28125,0 z m 48.25,164.78125 c 61.73484,0 110.53125,49.49615 110.53125,111.625 0,62.12885 -48.79641,111.25 -110.53125,111.25 -61.73484,0 -110.9375,-49.12115 -110.9375,-111.25 0,-62.12885 49.20266,-111.625 110.9375,-111.625 z"
           transform="matrix(0.06630777,0,0,0.06711703,230.23092,5.6856066)"
           id="path5989"
           inkscape:connector-curvature="0" />
      </g>
    </g>
  </g>
</svg>
